<?xml version="1.0" standalone="no"?><!DOCTYPE svg PUBLIC "-//W3C//DTD SVG 1.1//EN" "http://www.w3.org/Graphics/SVG/1.1/DTD/svg11.dtd"><svg t="1500889530354" class="icon" style="" viewBox="0 0 1024 1024" version="1.1" xmlns="http://www.w3.org/2000/svg" p-id="1019" xmlns:xlink="http://www.w3.org/1999/xlink" width="64" height="64"><defs><style type="text/css"></style></defs><path d="M917.333333 874.666667 106.666667 874.666667c-47.125333 0-85.333333-38.208-85.333333-85.333333L21.333333 234.666667c0-47.125333 38.208-85.333333 85.333333-85.333333l810.666667 0c47.125333 0 85.333333 38.208 85.333333 85.333333l0 554.666667C1002.666667 836.458667 964.458667 874.666667 917.333333 874.666667zM960 234.666667c0-23.552-19.114667-42.666667-42.666667-42.666667L106.666667 192c-23.552 0-42.666667 19.114667-42.666667 42.666667l0 554.666667c0 23.552 19.114667 42.666667 42.666667 42.666667l810.666667 0c23.552 0 42.666667-19.114667 42.666667-42.666667L960 234.666667zM881.792 740.586667 746.666667 605.461333 669.461333 682.666667l71.125333 71.125333c8.128 8.128 8.128 21.312 0 29.461333-8.149333 8.128-21.333333 8.128-29.461333 0L405.333333 477.461333 142.208 740.586667c-8.128 8.128-21.312 8.128-29.461333 0-8.128-8.149333-8.128-21.333333 0-29.461333L388.053333 435.818667c0.682667-1.024 1.130667-2.154667 2.026667-3.072 4.202667-4.202667 9.749333-6.122667 15.253333-5.994667 5.504-0.128 11.050667 1.792 15.253333 5.994667 0.896 0.917333 1.322667 2.048 2.026667 3.072L640 653.205333l89.386667-89.386667c0.704-1.002667 1.130667-2.154667 2.026667-3.072 4.202667-4.181333 9.749333-6.122667 15.253333-5.994667 5.504-0.128 11.050667 1.813333 15.253333 5.994667 0.896 0.917333 1.322667 2.069333 2.026667 3.072l147.306667 147.306667c8.128 8.128 8.128 21.312 0 29.461333C903.104 748.714667 889.92 748.714667 881.792 740.586667zM618.666667 405.333333c-47.125333 0-85.333333-38.208-85.333333-85.333333s38.208-85.333333 85.333333-85.333333 85.333333 38.208 85.333333 85.333333S665.792 405.333333 618.666667 405.333333zM618.666667 277.333333c-23.552 0-42.666667 19.114667-42.666667 42.666667s19.114667 42.666667 42.666667 42.666667 42.666667-19.114667 42.666667-42.666667S642.218667 277.333333 618.666667 277.333333z" p-id="1020" fill="#8a8a8a"></path></svg>